<!DOCTYPE svg PUBLIC "-//W3C//DTD SVG 1.1//EN" "http://www.w3.org/Graphics/SVG/1.1/DTD/svg11.dtd">
<!-- Uploaded to: SVG Repo, www.svgrepo.com, Transformed by: SVG Repo Mixer Tools -->
<svg height="197px" width="197px" version="1.1" id="Capa_1" xmlns="http://www.w3.org/2000/svg" xmlns:xlink="http://www.w3.org/1999/xlink" viewBox="-3.2 -3.2 38.40 38.40" xml:space="preserve" fill="#000000" transform="matrix(-1, 0, 0, -1, 0, 0)" stroke="#000000" stroke-width="0.32">
<g id="SVGRepo_bgCarrier" stroke-width="0" transform="translate(0,0), scale(1)">
<path transform="translate(-3.2, -3.2), scale(1.2)" d="M16,31.82859960058704C18.216049216727974,31.36161656694813,19.572331924847504,29.124257476819874,21.09819354586202,27.450730184487234C22.269492460397238,26.166078500508856,22.886327214575456,24.52984564965857,23.925477438242105,23.136131938384473C24.871458592705196,21.86737706968991,26.190339731078993,20.93997144696113,26.976640324739257,19.56652663997215C27.852442686749168,18.03674755071597,28.94570808947765,16.41170299216909,28.779930427228013,14.65677518569765C28.614247349773837,12.902848656994111,26.850516336381173,11.763715468129302,26.08946368391876,10.174845426110554C25.263450841768822,8.450356253162543,25.247215767936506,6.387316795166097,24.089881257798183,4.865233698007987C22.823610381736103,3.199881563431673,21.258071345010055,1.2350057685649645,19.171943119670832,1.077180893643618C17.006951483679753,0.9133896510892492,15.529016788480138,3.395756294574949,13.462332351808627,4.061212374469477C11.63782406380452,4.648689645564479,9.61712696057635,4.081632669670316,7.814831001190511,4.734081374037478C5.771243972699801,5.4738797972968065,3.036260167126346,6.048206204303567,2.3125448958162718,8.097544111078598C1.5324209176086843,10.306614036646012,3.5968569411544915,12.523809285926198,4.271641088314746,14.767299805665932C4.737286704703111,16.315456398143738,5.087158746000533,17.850360662581444,5.696349735952769,19.34785891388433C6.275015158538389,20.77031996912639,7.217290268869932,21.970989396948212,7.782935818363601,23.398677821400327C8.620410474005036,25.51246245685193,8.259092315678817,28.193723711944546,9.846113424815151,29.82185555030061C11.368776602622567,31.383962307802918,13.865439024468273,32.278410801672564,16,31.82859960058704" fill="#7ed0ec" strokewidth="0"/>
</g>
<g id="SVGRepo_tracerCarrier" stroke-linecap="round" stroke-linejoin="round"/>
<g id="SVGRepo_iconCarrier"> <g> <g id="right_x5F_quote"> <g> <path style="fill:#030104;" d="M0,4v12h8c0,4.41-3.586,8-8,8v4c6.617,0,12-5.383,12-12V4H0z"/> <path style="fill:#030104;" d="M20,4v12h8c0,4.41-3.586,8-8,8v4c6.617,0,12-5.383,12-12V4H20z"/> </g> </g> </g> </g>
</svg>