<svg width="35" height="32" viewBox="0 0 35 32" fill="none" xmlns="http://www.w3.org/2000/svg">
<g clip-path="url(#clip0_2_14)">
<rect width="35" height="32" fill="white"/>
<g filter="url(#filter0_d_2_14)">
<path d="M28.399 18.1662C31.2059 19.4963 32.8278 22.2981 33 24.5419V26.5355C33 27.8245 31.4472 28.0334 30.105 28.3453C28.1456 28.8006 25.6509 28.9342 24.2632 30.1C23.5916 30.6642 23.4938 30.9911 22.3762 30.9911C21.309 30.9911 20.238 31.0111 19.171 30.9911C16.8371 30.9475 14.2869 30.1865 12.0627 29.7509C10.1806 29.3823 8.30197 29.0192 6.36306 28.8414C4.8932 28.7066 1.32808 28.9675 2.11097 27.298C2.25417 26.9926 4.09704 27.2526 4.50196 27.0224C5.11299 26.6749 4.85092 25.7586 4.85092 25.2952C4.85092 23.6978 6.71201 22.4982 6.71201 20.8212C6.71201 19.7129 6.63089 19.1279 8.10784 18.5888C8.79554 18.3378 9.45568 18.055 9.86554 17.5782C10.2771 17.0994 10.808 16.439 11.7008 16.439C15.8716 16.439 20.0049 17.1782 24.121 17.422C25.4563 17.5011 27.2511 17.6222 28.399 18.1662Z" fill="#CC3FCC"/>
<path d="M33 24.5419C32.8278 22.2981 31.2058 19.4963 28.399 18.1662C27.2511 17.6222 25.4563 17.5011 24.121 17.422C20.0049 17.1782 15.8716 16.439 11.7008 16.439C10.808 16.439 10.2771 17.0994 9.86554 17.5782C9.45568 18.055 8.79554 18.3378 8.10784 18.5888C6.63088 19.1279 6.71201 19.7129 6.71201 20.8212C6.71201 22.4982 4.85092 23.6978 4.85092 25.2952C4.85092 25.7586 5.11299 26.6749 4.50196 27.0224C4.09704 27.2526 2.25417 26.9926 2.11097 27.298C1.32808 28.9675 4.8932 28.7066 6.36306 28.8414C8.30197 29.0192 10.1806 29.3823 12.0627 29.7509C14.2869 30.1865 16.8371 30.9475 19.171 30.9911C20.238 31.0111 21.309 30.9911 22.3762 30.9911C23.4938 30.9911 23.5916 30.6642 24.2632 30.1C25.6509 28.9342 28.1456 28.8006 30.105 28.3453C31.4472 28.0334 33 27.8245 33 26.5355C33 25.7607 33 24.9859 33 24.2112" stroke="black" stroke-width="0.517775" stroke-linecap="round"/>
<path d="M13.5361 19.6177C13.8754 19.7046 13.7474 20.0587 13.5611 20.1761C13.3335 20.4321 12.2953 20.9277 12.2953 20.3251C12.2953 19.7484 12.5599 19.3679 13.5361 19.6177Z" fill="#CC3FCC"/>
<path d="M13.2259 19.9117C13.3456 20.6778 14.1106 19.7647 13.5361 19.6177C12.5599 19.3679 12.2953 19.7484 12.2953 20.3251C12.2953 20.9408 13.3792 20.41 13.5748 20.1597C14.058 19.5415 12.9932 19.348 12.9932 20.2424" stroke="black" stroke-width="0.517775" stroke-linecap="round"/>
<path d="M20.4376 21.8961C20.4364 21.8814 20.4354 21.8667 20.4347 21.852C20.0247 22.1037 19.5001 21.5094 19.9659 21.2178C19.9694 21.1765 19.9877 21.1273 20.024 21.0692C20.229 20.7413 20.7036 20.7204 21.1355 20.7385C21.5143 20.7543 21.3681 21.2462 21.3681 21.4367C21.3681 21.7947 20.4724 22.3167 20.4376 21.8961Z" fill="#CC3FCC"/>
<path d="M20.205 20.9039C20.5355 21.1976 20.4088 21.5476 20.4376 21.8961C20.4724 22.3167 21.3681 21.7947 21.3681 21.4367C21.3681 21.2462 21.5143 20.7543 21.1355 20.7385C20.7036 20.7204 20.229 20.7413 20.024 21.0692C19.5334 21.8538 22.3265 21.0225 20.6185 21.0692C18.9597 21.1146 20.2052 22.557 20.6702 21.5653" stroke="black" stroke-width="0.517775" stroke-linecap="round"/>
<path d="M6.21455 21.9746C8.97432 23.2357 12.9955 23.5296 16.1921 23.7568C17.6681 23.8618 19.6864 23.4719 21.0516 23.8763C21.8502 24.1128 22.5441 24.2897 23.4297 24.2897" stroke="#1E1E1E" stroke-width="0.517775" stroke-linecap="round"/>
<path d="M15.9853 16.3522C16.6869 12.8614 19.7795 9.58924 22.9386 6.9815C23.5097 6.51006 23.9366 5.9256 24.4119 5.40134C24.6255 5.16577 26.0794 3.6713 26.1696 4.28054C26.8667 8.98789 25.2973 13.8904 26.9192 18.5019" stroke="#1E1E1E" stroke-width="0.517775" stroke-linecap="round"/>
<path d="M25.0582 4.61127C25.1879 4.32384 26.0265 0.713327 26.5057 0.679264C26.6904 0.666132 27.3047 2.56795 27.3845 2.86575C27.5937 3.64646 27.5696 3.61908 26.2472 3.61908C25.6425 3.61908 24.4439 3.44925 23.895 3.65583C23.3423 3.86382 25.4795 3.94981 25.7561 3.94981C26.4541 3.94981 27.0501 3.9741 27.7206 4.15192C28.205 4.28042 29.9033 4.56432 28.8579 4.77664C27.4113 5.07042 25.5378 5.08756 24.2181 4.54696C22.485 3.83704 19.1565 1.83235 18.777 0.348535C18.6737 -0.0552076 19.5212 0.474269 19.5266 0.477152C20.8371 1.18037 21.9668 2.03371 23.2617 2.74632C23.8855 3.08961 24.7538 3.28835 25.5364 3.28835C26.9938 3.28835 27.6923 2.25362 28.6253 1.57958C29.4309 0.997506 30.2581 0.544247 31.1972 0.0821135C31.3573 0.00332524 31.6963 -0.0917274 31.5591 0.18317C30.8066 1.69061 28.7397 3.10886 27.2811 4.28054C26.9457 4.54997 25.4938 6.03637 25.0582 5.10736" stroke="#1E1E1E" stroke-width="0.517775" stroke-linecap="round"/>
</g>
</g>
<defs>
<filter id="filter0_d_2_14" x="1.05072" y="-0.258888" width="32.8985" height="32.8985" filterUnits="userSpaceOnUse" color-interpolation-filters="sRGB">
<feFlood flood-opacity="0" result="BackgroundImageFix"/>
<feColorMatrix in="SourceAlpha" type="matrix" values="0 0 0 0 0 0 0 0 0 0 0 0 0 0 0 0 0 0 127 0" result="hardAlpha"/>
<feOffset dy="0.690366"/>
<feGaussianBlur stdDeviation="0.345183"/>
<feComposite in2="hardAlpha" operator="out"/>
<feColorMatrix type="matrix" values="0 0 0 0 0 0 0 0 0 0 0 0 0 0 0 0 0 0 0.25 0"/>
<feBlend mode="normal" in2="BackgroundImageFix" result="effect1_dropShadow_2_14"/>
<feBlend mode="normal" in="SourceGraphic" in2="effect1_dropShadow_2_14" result="shape"/>
</filter>
<clipPath id="clip0_2_14">
<rect width="35" height="32" fill="white"/>
</clipPath>
</defs>
</svg>
