<svg width="362" height="98" viewBox="0 0 362 98" fill="none" xmlns="http://www.w3.org/2000/svg">
<path d="M69.582 77V28.6562H82.7305C87.4232 28.6562 90.9316 29.9844 93.2559 32.6406C95.6022 35.2747 96.7754 38.6947 96.7754 42.9004C96.7754 47.1061 95.6022 50.5482 93.2559 53.2266C90.9316 55.9049 87.4232 57.2441 82.7305 57.2441H73.7988V77H69.582ZM73.7988 53.5254H82.7305C86.3607 53.5254 88.8952 52.4961 90.334 50.4375C91.7949 48.3789 92.5254 45.8776 92.5254 42.9336C92.5254 39.9674 91.7949 37.4661 90.334 35.4297C88.8952 33.3932 86.3607 32.3639 82.7305 32.3418H73.7988V53.5254ZM102.121 66.3086V45.7227H106.205V66.375C106.205 69.2305 106.814 71.2227 108.031 72.3516C109.271 73.4583 111.02 74.0117 113.277 74.0117C115.181 74.0117 116.852 73.4583 118.291 72.3516C119.752 71.2448 120.925 69.8281 121.811 68.1016V45.7227H125.928V77H122.109L121.977 72.4512H121.943C120.814 74.1113 119.398 75.3952 117.693 76.3027C116.011 77.2103 114.118 77.6641 112.016 77.6641C108.983 77.6641 106.57 76.8008 104.777 75.0742C103.007 73.3255 102.121 70.4036 102.121 66.3086ZM134.195 77V45.7227H138.047L138.08 50.0059H138.146C139.032 48.5892 140.183 47.4049 141.6 46.4531C143.016 45.4792 144.732 44.9922 146.746 44.9922C147.145 44.9922 147.609 45.0254 148.141 45.0918C148.672 45.1582 149.048 45.2357 149.27 45.3242V49.1758C148.871 49.0872 148.417 49.0098 147.908 48.9434C147.421 48.877 146.879 48.8438 146.281 48.8438C144.621 48.8438 143.072 49.375 141.633 50.4375C140.216 51.4779 139.098 52.8392 138.279 54.5215V77H134.195ZM150.664 61.8594V60.7969C150.664 56.082 151.893 52.2747 154.35 49.375C156.807 46.4531 160.049 44.9922 164.078 44.9922C168.151 44.9922 171.261 46.3424 173.408 49.043C175.555 51.7214 176.629 55.4844 176.629 60.332V61.9922H152.988V58.5059H172.479V58.207C172.479 55.7057 171.837 53.4701 170.553 51.5C169.269 49.5299 167.133 48.5449 164.145 48.5449C161.046 48.5449 158.699 49.6738 157.105 51.9316C155.534 54.1895 154.748 57.1445 154.748 60.7969V61.8594C154.748 65.5117 155.589 68.4779 157.271 70.7578C158.954 73.0378 161.4 74.1777 164.609 74.1777C166.757 74.1777 168.583 73.7461 170.088 72.8828C171.593 71.9974 172.777 70.8796 173.641 69.5293L176.363 72.0195C175.478 73.4362 174.05 74.7422 172.08 75.9375C170.132 77.1328 167.664 77.7305 164.676 77.7305C160.204 77.7305 156.751 76.2917 154.316 73.4141C151.882 70.5143 150.664 66.6628 150.664 61.8594ZM183.07 77V28.6562H196.252C200.413 28.6562 203.656 29.6523 205.98 31.6445C208.327 33.6146 209.5 36.7025 209.5 40.9082C209.5 43.7194 208.913 46.0436 207.74 47.8809C206.567 49.7181 205.084 50.9355 203.291 51.5332V51.666C205.549 52.2858 207.364 53.6361 208.736 55.7168C210.131 57.7754 210.828 60.4427 210.828 63.7188C210.828 67.9245 209.611 71.1895 207.176 73.5137C204.741 75.8379 201.443 77 197.281 77H183.07ZM187.254 73.3145H197.281C200.513 73.3145 202.882 72.4512 204.387 70.7246C205.892 68.998 206.645 66.6296 206.645 63.6191C206.645 60.5645 205.892 58.1517 204.387 56.3809C202.882 54.5879 200.513 53.6914 197.281 53.6914H187.254V73.3145ZM187.254 50.0059H196.252C199.462 50.0059 201.775 49.2201 203.191 47.6484C204.63 46.0768 205.35 43.8633 205.35 41.0078C205.35 38.1523 204.63 36.0052 203.191 34.5664C201.775 33.1055 199.462 32.3639 196.252 32.3418H187.254V50.0059ZM215.41 61.8594V60.7969C215.41 56.082 216.639 52.2747 219.096 49.375C221.553 46.4531 224.796 44.9922 228.824 44.9922C232.897 44.9922 236.007 46.3424 238.154 49.043C240.301 51.7214 241.375 55.4844 241.375 60.332V61.9922H217.734V58.5059H237.225V58.207C237.225 55.7057 236.583 53.4701 235.299 51.5C234.015 49.5299 231.879 48.5449 228.891 48.5449C225.792 48.5449 223.445 49.6738 221.852 51.9316C220.28 54.1895 219.494 57.1445 219.494 60.7969V61.8594C219.494 65.5117 220.335 68.4779 222.018 70.7578C223.7 73.0378 226.146 74.1777 229.355 74.1777C231.503 74.1777 233.329 73.7461 234.834 72.8828C236.339 71.9974 237.523 70.8796 238.387 69.5293L241.109 72.0195C240.224 73.4362 238.796 74.7422 236.826 75.9375C234.878 77.1328 232.41 77.7305 229.422 77.7305C224.951 77.7305 221.497 76.2917 219.062 73.4141C216.628 70.5143 215.41 66.6628 215.41 61.8594ZM245.426 68.0684C245.426 65.0137 246.61 62.5898 248.979 60.7969C251.369 58.9818 254.523 58.0742 258.441 58.0742H265.879V55.0859C265.879 52.9831 265.326 51.3783 264.219 50.2715C263.112 49.1426 261.308 48.5781 258.807 48.5781C256.327 48.5781 254.446 49.054 253.162 50.0059C251.9 50.9577 251.27 52.2858 251.27 53.9902V54.6543H247.152V53.6582C247.152 51.2454 248.193 49.1979 250.273 47.5156C252.376 45.8333 255.232 44.9922 258.84 44.9922C262.359 44.9922 265.093 45.778 267.041 47.3496C268.989 48.8991 269.963 51.4779 269.963 55.0859V69.0312C269.963 70.4701 270.062 71.8314 270.262 73.1152C270.461 74.3991 270.76 75.5169 271.158 76.4688V77H267.34C267.008 76.4245 266.72 75.694 266.477 74.8086C266.255 73.9232 266.089 73.0267 265.979 72.1191C265.248 73.5137 264.02 74.7533 262.293 75.8379C260.566 76.9225 258.364 77.4648 255.686 77.4648C252.587 77.4648 250.096 76.668 248.215 75.0742C246.355 73.4583 245.426 71.123 245.426 68.0684ZM249.51 67.9355C249.51 69.8835 250.096 71.3665 251.27 72.3848C252.465 73.403 254.18 73.9121 256.416 73.9121C258.807 73.9121 260.976 73.1042 262.924 71.4883C264.894 69.8724 265.879 68.0684 265.879 66.0762V61.3613H259.072C255.84 61.3613 253.439 61.9479 251.867 63.1211C250.296 64.2943 249.51 65.8991 249.51 67.9355ZM277.832 66.3086V45.7227H281.916V66.375C281.916 69.2305 282.525 71.2227 283.742 72.3516C284.982 73.4583 286.73 74.0117 288.988 74.0117C290.892 74.0117 292.563 73.4583 294.002 72.3516C295.463 71.2448 296.636 69.8281 297.521 68.1016V45.7227H301.639V77H297.82L297.688 72.4512H297.654C296.525 74.1113 295.109 75.3952 293.404 76.3027C291.722 77.2103 289.829 77.6641 287.727 77.6641C284.694 77.6641 282.281 76.8008 280.488 75.0742C278.717 73.3255 277.832 70.4036 277.832 66.3086ZM305.855 49.2754V45.7227H323.055V49.2754H305.855ZM311.467 68.5664V47.416V46.918V34.5H315.551V68.5664C315.551 70.8464 315.883 72.3294 316.547 73.0156C317.211 73.7018 318.251 74.0449 319.668 74.0449C320.199 74.0449 320.719 74.0007 321.229 73.9121C321.738 73.8236 322.225 73.6686 322.689 73.4473V77.0664C322.269 77.2435 321.715 77.3984 321.029 77.5312C320.365 77.6641 319.624 77.7305 318.805 77.7305C316.525 77.7305 314.732 77.0664 313.426 75.7383C312.12 74.388 311.467 71.9974 311.467 68.5664ZM325.014 90.8125V87.2598C325.567 87.459 326.143 87.5918 326.74 87.6582C327.36 87.7467 327.98 87.791 328.6 87.791C330.083 87.8132 331.355 87.0163 332.418 85.4004C333.503 83.7845 334.687 81.0397 335.971 77.166L323.984 45.7227H328.268L336.602 68.334C336.911 69.1751 337.166 69.9056 337.365 70.5254C337.587 71.1452 337.775 71.7539 337.93 72.3516H338.096C338.251 71.7539 338.428 71.1452 338.627 70.5254C338.848 69.8835 339.114 69.1419 339.424 68.3008L347.791 45.7227H351.908L338.262 81.6484C337 84.9688 335.694 87.4368 334.344 89.0527C333.016 90.6686 331.201 91.4766 328.898 91.4766C328.079 91.4766 327.36 91.4102 326.74 91.2773C326.143 91.1667 325.567 91.0117 325.014 90.8125Z" fill="black"/>
<path d="M8 53.0736H54V77.1879H8V53.0736Z" fill="#D0CFCE"/>
<path d="M38.8684 46.3752V77.1879H54V46.8691L38.8684 46.3752Z" fill="#9B9B9A"/>
<path d="M8 46.3752H54V53.0736H8V46.3752Z" fill="#D0CFCE"/>
<path d="M15.2632 46.3752H45.5263V11.8812C45.5263 11.8812 43.835 -1.35533 15.2632 0.299241V46.3752Z" fill="#EA5A47"/>
<path d="M38.8725 39.4419V4.845C40.8588 5.32247 42.6647 6.15352 44.1385 7.26835C45.6123 8.38318 46.7109 9.74925 47.3421 11.2518V46.3752H38.8684L38.8725 39.4419Z" fill="#D22F27"/>
<path d="M37.252 12.2956C35.4576 14.397 28.2229 13.4014 21.0928 10.0717C13.9628 6.74198 9.63758 2.33909 11.432 0.237651C12.0139 -0.443894 13.7094 0.56288 15.2457 0.506824C19.5411 0.11272 23.8906 0.801366 27.5913 2.46144C34.7212 5.79126 39.0466 10.194 37.252 12.2956Z" fill="#D22F27"/>
</svg>
